<svg width="49" height="47" viewBox="0 0 49 47" fill="none" xmlns="http://www.w3.org/2000/svg">
<path fill-rule="evenodd" clip-rule="evenodd" d="M41.6904 19V32.7778H16.5158V19L41.6904 19Z" fill="#FFCF00"/>
<path fill-rule="evenodd" clip-rule="evenodd" d="M1.42403 0.00117649C0.638993 0.00279574 0.00286616 0.648472 1.26096e-05 1.44632C-0.00157977 1.8313 0.147705 2.20171 0.414827 2.47495C0.68195 2.7482 1.04501 2.90203 1.42399 2.90284H8.60525L10.8903 9.84256L10.8931 9.85389L16.146 25.8101C14.7514 26.5327 13.7885 28.0131 13.7885 29.7008C13.7885 32.0879 15.7156 34.059 18.0632 34.059H18.7793C18.5564 34.6055 18.4338 35.2034 18.4338 35.8272C18.4338 38.388 20.5086 40.5056 23.0262 40.5056C25.5437 40.5056 27.6074 38.388 27.6074 35.8272C27.6074 35.2034 27.4836 34.6055 27.2619 34.059H32.0717C31.8487 34.6055 31.7233 35.2034 31.7233 35.8272C31.7233 38.388 33.7981 40.5056 36.3157 40.5056C38.8332 40.5056 40.897 38.388 40.897 35.8272C40.897 35.2034 40.7759 34.6055 40.5542 34.059H41.3623C42.1458 34.0562 42.7803 33.4109 42.7835 32.6139C42.7851 32.2293 42.6362 31.8597 42.3695 31.5864C42.1032 31.3132 41.7405 31.159 41.3623 31.1573H18.0631C17.2522 31.1573 16.6419 30.5355 16.6419 29.7008C16.6419 28.8661 17.2522 28.2442 18.0631 28.2442H41.3623C41.4682 28.243 41.5741 28.2301 41.6772 28.205C41.7158 28.1945 41.754 28.1819 41.7914 28.1681C41.8555 28.1471 41.9176 28.1216 41.9781 28.0916C42.016 28.0734 42.0534 28.0536 42.0896 28.0321C42.1501 27.9941 42.2079 27.9516 42.2624 27.9046C42.2911 27.8832 42.3189 27.8605 42.346 27.8366C42.4212 27.7633 42.4885 27.6816 42.5466 27.5929C42.5582 27.5714 42.5693 27.55 42.5801 27.5277C42.6251 27.452 42.6633 27.3727 42.6943 27.2897C42.6991 27.2796 42.7039 27.269 42.7087 27.2585L48.4408 9.85353C48.5877 9.41147 48.5165 8.92407 48.2489 8.54434C47.9818 8.16463 47.5511 7.93915 47.092 7.93793H13.2755L10.9876 0.986919C10.9805 0.969107 10.9729 0.950891 10.9653 0.933485C10.9434 0.876811 10.9184 0.822163 10.8901 0.769135C10.871 0.733106 10.8507 0.698293 10.8288 0.663886C10.8061 0.629882 10.7818 0.596687 10.7563 0.564707C10.7376 0.537584 10.7181 0.511273 10.6978 0.485365C10.6528 0.435978 10.6043 0.389424 10.5529 0.346519C10.5215 0.319801 10.4888 0.294297 10.4554 0.270009C10.4028 0.231552 10.3479 0.196333 10.291 0.165164C10.2579 0.148972 10.2245 0.133589 10.1906 0.119825C10.152 0.102823 10.113 0.0878459 10.0736 0.0740815C10.0394 0.062342 10.0051 0.0522212 9.9705 0.0429109C9.96373 0.0421012 9.95736 0.0408869 9.95099 0.0400772C9.90123 0.0279326 9.85107 0.0182173 9.8005 0.0117404H9.78896C9.74835 0.0068826 9.70735 0.00404894 9.66635 0.00283448C9.65321 0.00162012 9.64047 0.000809677 9.62734 0L1.42403 0.00117649ZM14.2314 10.84H45.0996L40.3289 25.3433H19.0027L14.2314 10.84ZM23.0261 34.0588C23.9963 34.0588 24.7511 34.8296 24.7511 35.827C24.7511 36.8244 23.9963 37.6037 23.0261 37.6037C22.0559 37.6037 21.2873 36.8245 21.2873 35.827C21.2873 34.8294 22.056 34.0588 23.0261 34.0588ZM36.3155 34.0588C37.2856 34.0588 38.0432 34.8296 38.0432 35.827C38.0432 36.8244 37.2856 37.6037 36.3155 37.6037C35.3453 37.6037 34.5794 36.8245 34.5794 35.827C34.5794 34.8294 35.3453 34.0588 36.3155 34.0588Z" fill="#1F2044"/>
<path fill-rule="evenodd" clip-rule="evenodd" d="M26.6621 44C26.6621 42.3431 28.0053 41 29.6621 41H39.9444C39.9444 44.3137 37.2581 47 33.9444 47H29.6621C28.0053 47 26.6621 45.6569 26.6621 44Z" fill="#FFCF00"/>
</svg>
