<svg xmlns="http://www.w3.org/2000/svg" width="44" height="42.87" viewBox="0 0 44 42.87"><defs><style>.a{fill:#ffd54c;}.b{fill:none;}.c{fill:#1f2044;}</style></defs><g transform="translate(0)"><path class="a" d="M246.95,177.036l-43.079-42.8v42.8Z" transform="translate(-203.871 -134.237)"/><g transform="translate(21.801 20.89)"><rect class="b" width="17" height="18" transform="translate(0.199 -0.241)"/><g transform="translate(0 0)"><path class="c" d="M245.131,175.4H227.873V157.237h17.258Zm-13.624-3.633H241.5v-10.9h-9.991Z" transform="translate(-227.873 -157.237)"/></g></g><rect class="c" width="4" height="3" transform="translate(7 7.649)"/><rect class="c" width="3" height="3" transform="translate(14 7.649)"/><rect class="c" width="3.633" height="3.633" transform="translate(20.344 7.266)"/><rect class="c" width="7" height="3" transform="translate(7 34.649)"/><rect class="c" width="12" height="3" transform="translate(7 28.649)"/><rect class="c" width="12" height="4" transform="translate(7 20.649)"/><rect class="c" width="37" height="4" transform="translate(7 13.649)"/><path class="c" d="M247.471,134.8h-43.6v42.358h3.633V138.434h39.965Z" transform="translate(-203.871 -134.289)"/></g></svg>