<svg id="Camada_1" data-name="Camada 1" xmlns="http://www.w3.org/2000/svg" viewBox="0 0 48 48"><g id="download"><rect id="Retângulo_14763" data-name="Retângulo 14763" x="2.01" y="2.42" width="43" height="44" fill="none"/><g id="Grupo_38214" data-name="Grupo 38214"><rect id="Retângulo_14764" data-name="Retângulo 14764" x="2.01" y="3.22" width="26.39" height="41.83" fill="#3c97ff"/><path id="Caminho_244240" data-name="Caminho 244240" d="M12.25,4.35l15.69,14.5,16-14.5" fill="#fff"/><g id="Grupo_38213" data-name="Grupo 38213"><rect id="Retângulo_14765" data-name="Retângulo 14765" x="9.71" y="2.12" width="36.28" height="24.22" fill="none"/><path id="Caminho_244241" data-name="Caminho 244241" d="M10.44,3.15V25.5h35V3.15Zm29.23,3L27.94,16.81,16.43,6.17ZM13.45,22.48V7.53L27.92,20.9,42.41,7.76V22.48Z" fill="#1f2044"/></g><path id="Caminho_244242" data-name="Caminho 244242" d="M45.43,28.52c0,12-4.87,16.8-17.12,16.91h-.37V41.8c10.26,0,14-3.5,14.07-13v-.28Z" fill="#1f2044"/><path id="Caminho_244243" data-name="Caminho 244243" d="M38.79,28.52c0,7.7-2.86,10.2-10.61,10.26h-.24V35h.41c5.4-.07,7-1.44,7-6.17v-.35Z" fill="#1f2044"/></g></g></svg>