<svg xmlns="http://www.w3.org/2000/svg" width="50.756" height="43.9" viewBox="0 0 50.756 43.9"><defs><style>.a{fill:#ffd54c;}.b{fill:#1f2044;}.c{fill:#fff;}</style></defs><path class="a" d="M829.226,167.034a25.378,25.378,0,0,1,50.756,0Z" transform="translate(-829.226 -132.393)"/><g transform="translate(2.532 17.631)"><path class="b" d="M855.414,171.556H832.187L843.8,151.441Zm-17.3-3.421h11.378l-5.688-9.853Z" transform="translate(-832.187 -151.441)"/></g><g transform="translate(25.327 17.631)"><path class="b" d="M882.068,171.556H858.841l11.614-20.115Zm-17.3-3.421h11.377l-5.688-9.853Z" transform="translate(-858.841 -151.441)"/></g><path class="c" d="M856.523,148.245l-15.757,27.293H872.28Z" transform="translate(-830.897 -133.347)"/><path class="b" d="M837.3,174.725H874.74l-17.054-29.54v-4.045h8.987V130.825h-12.45v10.316h.043v4.2Zm20.343-40.48h5.608v3.474h-5.608ZM843.226,171.3l12.795-22.161L868.815,171.3Z" transform="translate(-830.395 -130.825)"/></svg>