<svg width="749" height="18" viewBox="0 0 749 18" fill="none" xmlns="http://www.w3.org/2000/svg">
<path d="M9.12045 1.32849C12.9956 1.32849 15.2927 2.48578 15.2927 6.25577C15.2927 9.7978 13.1359 11.4286 9.08537 11.4286C7.36696 11.4286 6.12199 11.4461 4.2633 11.376C4.28084 12.5859 4.33344 13.6379 4.38605 14.4796H0.160156C0.212761 12.5858 0.23029 10.7096 0.23029 7.90405C0.23029 5.09848 0.212761 3.15211 0.160156 1.32849H9.12045ZM11.3474 6.30837C11.3474 4.90559 10.4882 4.43213 8.40152 4.43213C7.54231 4.43213 5.4206 4.43217 4.22823 4.46724V8.25476C5.05237 8.25476 6.6305 8.27226 8.33137 8.27226C10.5758 8.27226 11.3474 7.71116 11.3474 6.30837Z" fill="black"/>
<path d="M28.759 14.4796C28.6538 14.0588 28.3206 13.1294 27.8647 11.9896C26.5321 11.9721 25.1994 11.9721 24.1649 11.9721C23.2355 11.9721 21.8678 11.9721 20.5702 11.9896C20.1319 13.0768 19.7636 13.9886 19.5883 14.4796H15.0468C16.8353 11.1129 20.3949 3.3976 21.219 1.32849H27.3562C28.2329 3.3976 31.775 11.0428 33.6512 14.4796H28.759ZM26.7775 9.23671C26.2515 7.9742 25.7079 6.71166 25.217 5.64204C24.7786 4.73023 24.4805 3.97625 24.2525 3.41514C24.007 3.97625 23.6914 4.71273 23.2706 5.67714C22.8147 6.74677 22.2711 8.00927 21.7451 9.23671C22.6218 9.25424 23.5161 9.25421 24.1824 9.25421C24.8838 9.25421 25.8307 9.25424 26.7775 9.23671Z" fill="black"/>
<path d="M46.6439 9.25421C48.9234 9.4997 49.8703 9.99071 50.4489 11.8143C50.7821 12.9366 51.0977 13.936 51.3081 14.4796H47.5557C46.9069 14.4796 46.8192 14.3043 46.3984 12.6911C45.9074 10.8148 45.4866 10.4817 43.4174 10.4817C42.0673 10.4817 41.3834 10.4817 39.2792 10.4992C39.3143 12.0949 39.3669 13.4977 39.4721 14.4796H35.2988C35.3164 12.5683 35.3514 10.7272 35.3514 7.90405C35.3514 5.08094 35.3339 3.22225 35.2988 1.32849H44.6098C48.4499 1.32849 50.484 2.6436 50.484 5.32643C50.484 7.62349 49.3618 8.83337 46.6439 9.20161V9.25421ZM43.7506 7.64104C45.7671 7.64104 46.6088 7.09743 46.6088 5.97521C46.6088 4.6601 45.732 4.32695 43.5928 4.34448C42.7511 4.32695 40.5067 4.34448 39.2266 4.39708C39.2266 5.48424 39.2266 6.55384 39.2442 7.60593C40.1209 7.62347 41.8919 7.64104 43.7506 7.64104Z" fill="black"/>
<path d="M65.3715 14.4796C65.2663 14.0588 64.9332 13.1294 64.4773 11.9896C63.1446 11.9721 61.812 11.9721 60.7774 11.9721C59.8481 11.9721 58.4803 11.9721 57.1828 11.9896C56.7444 13.0768 56.3762 13.9886 56.2008 14.4796H51.6593C53.4479 11.1129 57.0074 3.3976 57.8316 1.32849H63.9688C64.8455 3.3976 68.3875 11.0428 70.2637 14.4796H65.3715ZM63.3901 9.23671C62.8641 7.9742 62.3205 6.71166 61.8295 5.64204C61.3911 4.73023 61.093 3.97625 60.8651 3.41514C60.6196 3.97625 60.304 4.71273 59.8831 5.67714C59.4272 6.74677 58.8837 8.00927 58.3576 9.23671C59.2344 9.25424 60.1286 9.25421 60.795 9.25421C61.4963 9.25421 62.4432 9.25424 63.3901 9.23671Z" fill="black"/>
<path d="M94.0764 6.44871C94.0764 4.90565 92.7438 4.36206 89.9382 4.36206C86.8345 4.41467 85.5194 5.22126 85.5194 7.74627C85.5194 10.2713 86.9397 11.3409 90.096 11.3409C93.0068 11.3409 94.094 10.5694 94.094 9.28934V8.95618C94.7603 8.97371 95.4091 8.97368 96.0578 8.97368C96.7066 8.97368 97.408 8.97371 98.0743 8.95618V9.49975C98.0743 12.6034 95.9175 14.7251 90.096 14.7251C84.2744 14.7251 81.4163 12.5859 81.4163 7.83392C81.4163 3.08199 84.5725 1.08301 90.0083 1.08301C95.4441 1.08301 98.0217 2.67871 98.0217 5.88758C98.0217 6.15061 98.0042 6.43117 97.9867 6.71172C97.3379 6.69419 96.6716 6.69417 96.0052 6.69417C95.3389 6.69417 94.7252 6.69419 94.0764 6.71172V6.44871Z" fill="black"/>
<path d="M112.313 9.25409C114.593 9.49957 115.539 9.99059 116.118 11.8142C116.451 12.9364 116.767 13.9359 116.977 14.4795H113.225C112.576 14.4795 112.488 14.3042 112.068 12.6909C111.577 10.8147 111.156 10.4815 109.087 10.4815C107.736 10.4815 107.053 10.4816 104.948 10.4991C104.983 12.0948 105.036 13.4975 105.141 14.4795H100.968C100.986 12.5682 101.021 10.727 101.021 7.90392C101.021 5.08082 101.003 3.22213 100.968 1.32837H110.279C114.119 1.32837 116.153 2.64348 116.153 5.3263C116.153 7.62337 115.031 8.83325 112.313 9.20148V9.25409ZM109.42 7.64091C111.436 7.64091 112.278 7.09731 112.278 5.97508C112.278 4.65997 111.401 4.32682 109.262 4.34436C108.42 4.32682 106.176 4.34436 104.896 4.39696C104.896 5.48412 104.896 6.55372 104.913 7.60581C105.79 7.62334 107.561 7.64091 109.42 7.64091Z" fill="black"/>
<path d="M133.284 1.32837C133.267 1.66153 133.267 2.27526 133.267 2.76624C133.267 3.25721 133.249 3.95861 133.284 4.30931C130.356 4.29177 126.06 4.27421 123.553 4.27421V6.46606C126.499 6.46606 130.777 6.46606 133.109 6.41346C133.092 7.04471 133.092 8.50011 133.092 9.16643C130.795 9.13136 126.481 9.09628 123.553 9.09628V11.3583C126.06 11.3583 130.514 11.3408 133.284 11.3232C133.249 11.6915 133.249 12.4104 133.249 12.954C133.249 13.4449 133.249 14.0937 133.284 14.4795H119.467C119.537 12.726 119.537 10.7095 119.537 7.90392C119.537 5.09835 119.537 3.01171 119.467 1.32837H133.284Z" fill="black"/>
<path d="M139.974 10.2887C139.974 11.3408 140.798 11.7441 143.726 11.7441C146.655 11.7441 147.339 11.3584 147.339 10.7096C147.339 10.0257 146.918 9.55226 143.095 9.2717C137.572 8.83333 136.064 7.51819 136.064 5.08085C136.064 2.64351 138.203 1.01282 143.446 1.01282C149.075 1.01282 150.968 2.24022 150.968 4.81784C150.968 5.06333 150.951 5.30882 150.933 5.58938C150.512 5.55431 149.793 5.53678 149.057 5.53678C148.321 5.53678 147.584 5.55431 147.146 5.58938V5.23871C147.146 4.41458 146.602 3.9937 143.358 3.9937C140.57 3.9937 140.009 4.34442 140.009 4.9406C140.009 5.50171 140.342 5.94006 144.428 6.29076C149.495 6.7642 151.231 7.904 151.231 10.5518C151.231 13.1995 149.215 14.7952 143.761 14.7952C138.028 14.7952 135.958 13.4625 135.958 10.9726C135.958 10.692 135.958 10.3764 136.011 10.0783C136.485 10.1309 137.239 10.1835 137.957 10.1835C138.711 10.1835 139.413 10.166 139.974 10.1309V10.2887Z" fill="black"/>
<path d="M165.76 6.44871C165.76 4.90565 164.427 4.36206 161.622 4.36206C158.518 4.41467 157.203 5.22126 157.203 7.74627C157.203 10.2713 158.623 11.3409 161.78 11.3409C164.69 11.3409 165.778 10.5694 165.778 9.28934V8.95618C166.444 8.97371 167.093 8.97368 167.741 8.97368C168.39 8.97368 169.092 8.97371 169.758 8.95618V9.49975C169.758 12.6034 167.601 14.7251 161.78 14.7251C155.958 14.7251 153.1 12.5859 153.1 7.83392C153.1 3.08199 156.256 1.08301 161.692 1.08301C167.128 1.08301 169.705 2.67871 169.705 5.88758C169.705 6.15061 169.688 6.43117 169.67 6.71172C169.021 6.69419 168.355 6.69417 167.689 6.69417C167.022 6.69417 166.409 6.69419 165.76 6.71172V6.44871Z" fill="black"/>
<path d="M186.451 1.32837C186.433 1.66153 186.433 2.27526 186.433 2.76624C186.433 3.25721 186.415 3.95861 186.451 4.30931C183.522 4.29177 179.226 4.27421 176.719 4.27421V6.46606C179.665 6.46606 183.943 6.46606 186.275 6.41346C186.258 7.04471 186.258 8.50011 186.258 9.16643C183.961 9.13136 179.647 9.09628 176.719 9.09628V11.3583C179.226 11.3583 183.68 11.3408 186.451 11.3232C186.415 11.6915 186.415 12.4104 186.415 12.954C186.415 13.4449 186.415 14.0937 186.451 14.4795H172.633C172.703 12.726 172.703 10.7095 172.703 7.90392C172.703 5.09835 172.703 3.01171 172.633 1.32837H186.451Z" fill="black"/>
<path d="M201.074 9.25409C203.353 9.49957 204.3 9.99059 204.879 11.8142C205.212 12.9364 205.528 13.9359 205.738 14.4795H201.986C201.337 14.4795 201.249 14.3042 200.828 12.6909C200.337 10.8147 199.916 10.4815 197.847 10.4815C196.497 10.4815 195.813 10.4816 193.709 10.4991C193.744 12.0948 193.797 13.4975 193.902 14.4795H189.729C189.746 12.5682 189.781 10.727 189.781 7.90392C189.781 5.08082 189.764 3.22213 189.729 1.32837H199.04C202.88 1.32837 204.914 2.64348 204.914 5.3263C204.914 7.62337 203.792 8.83325 201.074 9.20148V9.25409ZM198.181 7.64091C200.197 7.64091 201.039 7.09731 201.039 5.97508C201.039 4.65997 200.162 4.32682 198.023 4.34436C197.181 4.32682 194.937 4.34436 193.657 4.39696C193.657 5.48412 193.657 6.55372 193.674 7.60581C194.551 7.62334 196.322 7.64091 198.181 7.64091Z" fill="black"/>
<path d="M209.351 10.4991C209.982 10.4991 210.596 10.4816 211.174 10.429C210.56 12.5682 209.473 15.8823 209.14 17.0747C208.474 16.8993 207.211 16.5661 206.422 16.4083C206.843 14.7601 207.176 12.235 207.404 10.429C207.965 10.4816 208.649 10.4991 209.351 10.4991Z" fill="black"/>
<path d="M234.917 1.32837C234.899 1.66153 234.899 2.27526 234.899 2.76624C234.899 3.25721 234.881 3.95861 234.917 4.30931C231.988 4.29177 227.692 4.27421 225.185 4.27421V6.46606C228.131 6.46606 232.409 6.46606 234.741 6.41346C234.724 7.04471 234.724 8.50011 234.724 9.16643C232.427 9.13136 228.113 9.09628 225.185 9.09628V11.3583C227.692 11.3583 232.146 11.3408 234.917 11.3232C234.881 11.6915 234.881 12.4104 234.881 12.954C234.881 13.4449 234.881 14.0937 234.917 14.4795H221.099C221.169 12.726 221.169 10.7095 221.169 7.90392C221.169 5.09835 221.169 3.01171 221.099 1.32837H234.917Z" fill="black"/>
<path d="M254.065 1.32837C254.029 2.80129 254.012 5.09834 254.012 7.88637C254.012 10.6744 254.012 12.7435 254.047 14.4795H249.856C249.05 13.252 245.718 9.8678 243.491 7.5006C242.895 6.86935 242.299 6.20302 241.825 5.51916C241.895 6.55372 241.93 7.55324 241.966 8.51765C241.983 11.5512 241.983 13.6203 242.036 14.4795H238.178C238.196 12.726 238.231 10.7095 238.231 7.90392C238.231 5.09835 238.231 3.04678 238.178 1.32837H242.947C243.491 2.22264 247.208 5.95757 249.225 8.18449C249.733 8.7456 250.224 9.3593 250.593 10.0256C250.505 9.02614 250.452 8.04418 250.452 7.16744C250.452 4.85284 250.4 2.38046 250.312 1.32837H254.065Z" fill="black"/>
<path d="M265.418 14.7952C259.754 14.7952 256.721 12.2351 256.721 7.79878C256.721 3.36247 259.86 1.01282 265.313 1.01282C270.766 1.01282 273.256 2.78384 273.256 5.62448C273.256 5.79983 273.256 5.97517 273.239 6.16806C272.8 6.13299 272.046 6.11546 271.31 6.11546C270.503 6.11546 269.767 6.13299 269.293 6.16806C269.293 6.06285 269.311 5.95762 269.311 5.86994C269.311 4.67757 268.101 4.18661 265.313 4.18661C262.174 4.18661 260.807 5.11595 260.807 7.85139C260.807 10.429 262.052 11.674 265.488 11.674C268.224 11.674 269.276 11.0252 269.434 9.55226C267.803 9.55226 265.664 9.5698 264.226 9.60487C264.243 9.37691 264.243 8.86841 264.243 8.62292C264.243 8.09688 264.243 7.65851 264.226 7.30781C266.049 7.34288 267.926 7.34286 269.311 7.34286C270.381 7.34286 271.783 7.36041 273.221 7.30781C273.519 11.9545 272.52 14.7952 265.418 14.7952Z" fill="black"/>
<path d="M288.039 14.4795C287.933 14.0586 287.6 13.1293 287.144 11.9895C285.812 11.972 284.479 11.972 283.444 11.972C282.515 11.972 281.147 11.972 279.85 11.9895C279.412 13.0767 279.043 13.9885 278.868 14.4795H274.326C276.115 11.1128 279.675 3.39748 280.499 1.32837H286.636C287.513 3.39748 291.055 11.0427 292.931 14.4795H288.039ZM286.057 9.23659C285.531 7.97408 284.988 6.71154 284.497 5.64192C284.058 4.73011 283.76 3.97613 283.532 3.41502C283.287 3.97613 282.971 4.71261 282.55 5.67702C282.094 6.74665 281.551 8.00915 281.025 9.23659C281.901 9.25412 282.796 9.25409 283.462 9.25409C284.163 9.25409 285.11 9.25412 286.057 9.23659Z" fill="black"/>
<path d="M302.627 1.32837C302.592 2.66102 302.574 3.73065 302.574 5.1159C302.574 5.69454 302.627 7.18501 302.627 9.00863C302.627 12.4455 301.172 14.6899 297.261 14.6899C296.016 14.6899 294.578 14.5496 293.421 14.1113C293.579 13.4625 293.93 11.446 294 10.5341C294.754 10.9199 295.49 11.1303 296.63 11.1303C297.892 11.1303 298.647 10.4114 298.647 9.30669C298.647 6.01014 298.647 2.57334 298.506 1.32837H302.627Z" fill="black"/>
<path d="M317.567 14.4795C317.462 14.0586 317.129 13.1293 316.673 11.9895C315.34 11.972 314.007 11.972 312.973 11.972C312.043 11.972 310.676 11.972 309.378 11.9895C308.94 13.0767 308.572 13.9885 308.396 14.4795H303.855C305.643 11.1128 309.203 3.39748 310.027 1.32837H316.164C317.041 3.39748 320.583 11.0427 322.459 14.4795H317.567ZM315.586 9.23659C315.059 7.97408 314.516 6.71154 314.025 5.64192C313.587 4.73011 313.288 3.97613 313.061 3.41502C312.815 3.97613 312.499 4.71261 312.079 5.67702C311.623 6.74665 311.079 8.00915 310.553 9.23659C311.43 9.25412 312.324 9.25409 312.99 9.25409C313.692 9.25409 314.639 9.25412 315.586 9.23659Z" fill="black"/>
<path d="M335.452 9.25409C337.731 9.49957 338.678 9.99059 339.257 11.8142C339.59 12.9364 339.906 13.9359 340.116 14.4795H336.364C335.715 14.4795 335.627 14.3042 335.206 12.6909C334.715 10.8147 334.294 10.4815 332.225 10.4815C330.875 10.4815 330.191 10.4816 328.087 10.4991C328.122 12.0948 328.175 13.4975 328.28 14.4795H324.107C324.124 12.5682 324.159 10.727 324.159 7.90392C324.159 5.08082 324.142 3.22213 324.107 1.32837H333.418C337.258 1.32837 339.292 2.64348 339.292 5.3263C339.292 7.62337 338.17 8.83325 335.452 9.20148V9.25409ZM332.558 7.64091C334.575 7.64091 335.417 7.09731 335.417 5.97508C335.417 4.65997 334.54 4.32682 332.401 4.34436C331.559 4.32682 329.315 4.34436 328.034 4.39696C328.034 5.48412 328.034 6.55372 328.052 7.60581C328.929 7.62334 330.7 7.64091 332.558 7.64091Z" fill="black"/>
<path d="M364.674 1.32849C364.656 1.66165 364.656 2.27538 364.656 2.76636C364.656 3.25733 364.639 3.95873 364.674 4.30943C361.746 4.2919 357.45 4.27433 354.942 4.27433V6.46618C357.888 6.46618 362.167 6.46618 364.499 6.41358C364.481 7.04483 364.481 8.50023 364.481 9.16656C362.184 9.13149 357.87 9.0964 354.942 9.0964V11.3584C357.45 11.3584 361.904 11.3409 364.674 11.3234C364.639 11.6916 364.639 12.4105 364.639 12.9541C364.639 13.4451 364.639 14.0938 364.674 14.4796H350.857C350.927 12.7261 350.927 10.7096 350.927 7.90405C350.927 5.09848 350.927 3.01183 350.857 1.32849H364.674Z" fill="black"/>
<path d="M388.065 6.44871C388.065 4.90565 386.733 4.36206 383.927 4.36206C380.824 4.41467 379.508 5.22126 379.508 7.74627C379.508 10.2713 380.929 11.3409 384.085 11.3409C386.996 11.3409 388.083 10.5694 388.083 9.28934V8.95618C388.749 8.97371 389.398 8.97368 390.047 8.97368C390.696 8.97368 391.397 8.97371 392.063 8.95618V9.49975C392.063 12.6034 389.907 14.7251 384.085 14.7251C378.263 14.7251 375.405 12.5859 375.405 7.83392C375.405 3.08199 378.561 1.08301 383.997 1.08301C389.433 1.08301 392.011 2.67871 392.011 5.88758C392.011 6.15061 391.993 6.43117 391.976 6.71172C391.327 6.69419 390.661 6.69417 389.994 6.69417C389.328 6.69417 388.714 6.69419 388.065 6.71172V6.44871Z" fill="black"/>
<path d="M402.795 14.8829C397.008 14.8829 394.133 12.2001 394.133 7.78129C394.133 3.36252 397.254 0.925171 402.795 0.925171C408.336 0.925171 411.51 3.29238 411.51 7.78129C411.51 12.2702 408.599 14.8829 402.795 14.8829ZM407.407 7.85144C407.407 5.51931 406.056 4.29188 402.812 4.29188C399.569 4.29188 398.201 5.48424 398.201 7.85144C398.201 10.2186 399.551 11.5162 402.812 11.5162C406.074 11.5162 407.407 10.166 407.407 7.85144Z" fill="black"/>
<path d="M430.062 1.32849C430.027 2.80142 430.01 5.09846 430.01 7.8865C430.01 10.6745 430.01 12.7437 430.045 14.4796H425.854C425.047 13.2522 421.716 9.86793 419.489 7.50073C418.893 6.86947 418.296 6.20314 417.823 5.51928C417.893 6.55384 417.928 7.55336 417.963 8.51778C417.981 11.5513 417.981 13.6204 418.033 14.4796H414.176C414.193 12.7261 414.228 10.7096 414.228 7.90405C414.228 5.09848 414.228 3.0469 414.176 1.32849H418.945C419.489 2.22277 423.206 5.95769 425.223 8.18461C425.731 8.74572 426.222 9.35942 426.59 10.0257C426.503 9.02626 426.45 8.0443 426.45 7.16756C426.45 4.85297 426.398 2.38058 426.31 1.32849H430.062Z" fill="black"/>
<path d="M449.595 1.32849C447.876 4.67764 444.545 12.2527 443.721 14.4796C442.862 14.4445 441.897 14.4446 440.88 14.4446C439.635 14.4446 438.706 14.4621 437.917 14.4796C437.075 12.2702 433.638 4.57243 431.867 1.32849H436.829C437.145 2.591 438.846 6.79935 440.091 9.71013C440.407 10.4466 440.67 11.0603 440.863 11.5864C441.091 11.0603 441.336 10.429 441.652 9.69258C442.844 6.79933 444.545 2.62607 444.966 1.32849H449.595Z" fill="black"/>
<path d="M465.184 1.32849C465.166 1.66165 465.166 2.27538 465.166 2.76636C465.166 3.25733 465.149 3.95873 465.184 4.30943C462.255 4.2919 457.959 4.27433 455.452 4.27433V6.46618C458.398 6.46618 462.676 6.46618 465.008 6.41358C464.991 7.04483 464.991 8.50023 464.991 9.16656C462.694 9.13149 458.38 9.0964 455.452 9.0964V11.3584C457.959 11.3584 462.413 11.3409 465.184 11.3234C465.149 11.6916 465.149 12.4105 465.149 12.9541C465.149 13.4451 465.149 14.0938 465.184 14.4796H451.366C451.436 12.7261 451.436 10.7096 451.436 7.90405C451.436 5.09848 451.436 3.01183 451.366 1.32849H465.184Z" fill="black"/>
<path d="M479.808 9.25421C482.088 9.4997 483.034 9.99071 483.613 11.8143C483.946 12.9366 484.262 13.936 484.472 14.4796H480.72C480.071 14.4796 479.983 14.3043 479.562 12.6911C479.071 10.8148 478.651 10.4817 476.582 10.4817C475.231 10.4817 474.548 10.4817 472.443 10.4992C472.478 12.0949 472.531 13.4977 472.636 14.4796H468.463C468.481 12.5683 468.516 10.7272 468.516 7.90405C468.516 5.08094 468.498 3.22225 468.463 1.32849H477.774C481.614 1.32849 483.648 2.6436 483.648 5.32643C483.648 7.62349 482.526 8.83337 479.808 9.20161V9.25421ZM476.915 7.64104C478.931 7.64104 479.773 7.09743 479.773 5.97521C479.773 4.6601 478.896 4.32695 476.757 4.34448C475.915 4.32695 473.671 4.34448 472.391 4.39708C472.391 5.48424 472.391 6.55384 472.408 7.60593C473.285 7.62347 475.056 7.64104 476.915 7.64104Z" fill="black"/>
<path d="M499.236 1.32849C499.201 1.74933 499.201 2.41563 499.201 3.01182C499.201 3.57293 499.201 4.29186 499.236 4.7653C497.483 4.7127 495.747 4.7127 494.221 4.7127C494.221 9.23668 494.239 13.4626 494.291 14.4972C493.748 14.4446 492.853 14.4446 492.24 14.4446C491.626 14.4446 490.784 14.4446 490.206 14.4972C490.276 13.4801 490.293 9.25422 490.293 4.7127C488.768 4.7127 487.032 4.7127 485.278 4.7653C485.296 4.29186 485.296 3.57293 485.296 3.01182C485.296 2.41563 485.296 1.76686 485.278 1.32849H499.236Z" fill="black"/>
<path d="M515.07 1.32849C515.053 1.66165 515.053 2.27538 515.053 2.76636C515.053 3.25733 515.035 3.95873 515.07 4.30943C512.142 4.2919 507.846 4.27433 505.338 4.27433V6.46618C508.284 6.46618 512.563 6.46618 514.895 6.41358C514.877 7.04483 514.877 8.50023 514.877 9.16656C512.58 9.13149 508.267 9.0964 505.338 9.0964V11.3584C507.846 11.3584 512.3 11.3409 515.07 11.3234C515.035 11.6916 515.035 12.4105 515.035 12.9541C515.035 13.4451 515.035 14.0938 515.07 14.4796H501.253C501.323 12.7261 501.323 10.7096 501.323 7.90405C501.323 5.09848 501.323 3.01183 501.253 1.32849H515.07Z" fill="black"/>
<path d="M529.694 9.25421C531.973 9.4997 532.92 9.99071 533.499 11.8143C533.832 12.9366 534.147 13.936 534.358 14.4796H530.605C529.957 14.4796 529.869 14.3043 529.448 12.6911C528.957 10.8148 528.536 10.4817 526.467 10.4817C525.117 10.4817 524.433 10.4817 522.329 10.4992C522.364 12.0949 522.417 13.4977 522.522 14.4796H518.349C518.366 12.5683 518.401 10.7272 518.401 7.90405C518.401 5.08094 518.384 3.22225 518.349 1.32849H527.66C531.5 1.32849 533.534 2.6436 533.534 5.32643C533.534 7.62349 532.412 8.83337 529.694 9.20161V9.25421ZM526.8 7.64104C528.817 7.64104 529.659 7.09743 529.659 5.97521C529.659 4.6601 528.782 4.32695 526.643 4.34448C525.801 4.32695 523.556 4.34448 522.276 4.39708C522.276 5.48424 522.276 6.55384 522.294 7.60593C523.171 7.62347 524.942 7.64104 526.8 7.64104Z" fill="black"/>
<path d="M560.608 14.4796C560.678 12.2878 560.713 10.4466 560.731 8.0268C560.731 7.11499 560.801 6.09798 560.853 5.13357L560.766 5.11602C560.415 6.08043 560.012 7.06236 559.573 7.83389L555.979 14.4796H554.12L550.245 7.41307C549.806 6.60647 549.403 5.64206 549.052 4.73025L548.965 4.7478C549 5.72975 549.07 6.69415 549.088 7.69364C549.088 10.2362 549.14 12.2176 549.21 14.4796H545.493C545.563 12.5858 545.581 10.6745 545.581 7.8865C545.581 5.09846 545.563 3.0469 545.528 1.32849H551.051C551.77 2.67867 552.928 5.04588 554.33 7.64104C554.664 8.25475 555.049 8.99118 555.4 9.74518C555.751 8.99118 556.119 8.25475 556.452 7.64104C557.75 5.11602 559.012 2.66114 559.714 1.32849H564.676C564.641 3.0469 564.606 5.01079 564.606 7.8865C564.606 10.7622 564.623 12.5858 564.711 14.4796H560.608Z" fill="black"/>
<path d="M580.212 14.4797C580.107 14.0589 579.774 13.1295 579.318 11.9898C577.985 11.9722 576.653 11.9723 575.618 11.9723C574.689 11.9723 573.321 11.9722 572.024 11.9898C571.585 13.0769 571.217 13.9887 571.041 14.4797H566.5C568.289 11.113 571.848 3.39772 572.672 1.32861H578.809C579.686 3.39772 583.228 11.0429 585.104 14.4797H580.212ZM578.231 9.23683C577.705 7.97433 577.161 6.71179 576.67 5.64216C576.232 4.73035 575.934 3.97637 575.706 3.41526C575.46 3.97637 575.145 4.71285 574.724 5.67727C574.268 6.74689 573.724 8.0094 573.198 9.23683C574.075 9.25437 574.969 9.25433 575.636 9.25433C576.337 9.25433 577.284 9.25437 578.231 9.23683Z" fill="black"/>
<path d="M586.734 14.4797C586.787 12.4632 586.787 10.6922 586.787 7.90417C586.787 5.11613 586.787 3.32758 586.734 1.32861H590.82C590.767 3.31005 590.767 5.08105 590.767 7.88662C590.767 10.6922 590.767 12.4457 590.82 14.4797H586.734Z" fill="black"/>
<path d="M597.747 10.2888C597.747 11.3409 598.571 11.7442 601.5 11.7442C604.428 11.7442 605.112 11.3585 605.112 10.7097C605.112 10.0258 604.691 9.55238 600.868 9.27182C595.345 8.83345 593.837 7.51832 593.837 5.08098C593.837 2.64364 595.976 1.01294 601.219 1.01294C606.848 1.01294 608.741 2.24035 608.741 4.81796C608.741 5.06345 608.724 5.30894 608.706 5.5895C608.286 5.55443 607.567 5.5369 606.83 5.5369C606.094 5.5369 605.357 5.55443 604.919 5.5895V5.23884C604.919 4.4147 604.375 3.99383 601.131 3.99383C598.343 3.99383 597.782 4.34454 597.782 4.94072C597.782 5.50184 598.115 5.94019 602.201 6.29088C607.269 6.76432 609.005 7.90413 609.005 10.5519C609.005 13.1996 606.988 14.7953 601.535 14.7953C595.801 14.7953 593.732 13.4626 593.732 10.9727C593.732 10.6921 593.732 10.3765 593.784 10.0784C594.258 10.131 595.012 10.1836 595.731 10.1836C596.485 10.1836 597.186 10.1661 597.747 10.131V10.2888Z" fill="black"/>
<path d="M630.923 6.44871C630.923 4.90565 629.59 4.36206 626.785 4.36206C623.681 4.41467 622.366 5.22126 622.366 7.74627C622.366 10.2713 623.786 11.3409 626.942 11.3409C629.853 11.3409 630.94 10.5694 630.94 9.28934V8.95618C631.607 8.97371 632.255 8.97368 632.904 8.97368C633.553 8.97368 634.254 8.97371 634.921 8.95618V9.49975C634.921 12.6034 632.764 14.7251 626.942 14.7251C621.121 14.7251 618.263 12.5859 618.263 7.83392C618.263 3.08199 621.419 1.08301 626.855 1.08301C632.29 1.08301 634.868 2.67871 634.868 5.88758C634.868 6.15061 634.851 6.43117 634.833 6.71172C634.184 6.69419 633.518 6.69417 632.852 6.69417C632.185 6.69417 631.572 6.69419 630.923 6.71172V6.44871Z" fill="black"/>
<path d="M641.864 1.32849C641.811 2.32798 641.776 4.92311 641.776 7.8865V11.0428C643.775 11.0428 646.686 11.0603 649.053 10.9902C649.036 11.5513 649.018 12.1475 649.018 12.7261C649.018 13.3048 649.036 13.901 649.053 14.4796H637.743C637.743 13.2697 637.796 10.7096 637.796 7.90405C637.796 4.87052 637.796 2.591 637.743 1.32849H641.864Z" fill="black"/>
<path d="M651.07 14.4797C651.123 12.4632 651.123 10.6922 651.123 7.90417C651.123 5.11613 651.123 3.32758 651.07 1.32861H655.156C655.103 3.31005 655.103 5.08105 655.103 7.88662C655.103 10.6922 655.103 12.4457 655.156 14.4797H651.07Z" fill="black"/>
<path d="M672.462 1.32849C672.445 1.66165 672.445 2.27538 672.445 2.76636C672.445 3.25733 672.427 3.95873 672.462 4.30943C669.534 4.2919 665.238 4.27433 662.73 4.27433V6.46618C665.676 6.46618 669.955 6.46618 672.287 6.41358C672.269 7.04483 672.269 8.50023 672.269 9.16656C669.972 9.13149 665.659 9.0964 662.73 9.0964V11.3584C665.238 11.3584 669.692 11.3409 672.462 11.3234C672.427 11.6916 672.427 12.4105 672.427 12.9541C672.427 13.4451 672.427 14.0938 672.462 14.4796H658.645C658.715 12.7261 658.715 10.7096 658.715 7.90405C658.715 5.09848 658.715 3.01183 658.645 1.32849H672.462Z" fill="black"/>
<path d="M691.61 1.32861C691.575 2.80154 691.558 5.09858 691.558 7.88662C691.558 10.6747 691.558 12.7438 691.593 14.4797H687.402C686.595 13.2523 683.264 9.86805 681.037 7.50085C680.441 6.8696 679.844 6.20326 679.371 5.51941C679.441 6.55396 679.476 7.55348 679.511 8.5179C679.529 11.5514 679.529 13.6205 679.581 14.4797H675.724C675.741 12.7262 675.776 10.7097 675.776 7.90417C675.776 5.0986 675.776 3.04703 675.724 1.32861H680.493C681.037 2.22289 684.754 5.95781 686.771 8.18473C687.279 8.74585 687.77 9.35954 688.138 10.0259C688.051 9.02638 687.998 8.04442 687.998 7.16768C687.998 4.85309 687.945 2.3807 687.858 1.32861H691.61Z" fill="black"/>
<path d="M707.62 1.32849C707.585 1.74933 707.585 2.41563 707.585 3.01182C707.585 3.57293 707.585 4.29186 707.62 4.7653C705.866 4.7127 704.13 4.7127 702.605 4.7127C702.605 9.23668 702.622 13.4626 702.675 14.4972C702.131 14.4446 701.237 14.4446 700.623 14.4446C700.01 14.4446 699.168 14.4446 698.589 14.4972C698.66 13.4801 698.677 9.25422 698.677 4.7127C697.152 4.7127 695.416 4.7127 693.662 4.7653C693.68 4.29186 693.68 3.57293 693.68 3.01182C693.68 2.41563 693.68 1.76686 693.662 1.32849H707.62Z" fill="black"/>
<path d="M723.453 1.32861C723.436 1.66177 723.436 2.27551 723.436 2.76648C723.436 3.25746 723.418 3.95886 723.453 4.30955C720.525 4.29202 716.229 4.27445 713.721 4.27445V6.4663C716.667 6.4663 720.946 6.4663 723.278 6.4137C723.26 7.04495 723.26 8.50035 723.26 9.16668C720.963 9.13161 716.65 9.09652 713.721 9.09652V11.3585C716.229 11.3585 720.683 11.341 723.453 11.3235C723.418 11.6917 723.418 12.4106 723.418 12.9542C723.418 13.4452 723.418 14.094 723.453 14.4797H709.636C709.706 12.7262 709.706 10.7097 709.706 7.90417C709.706 5.0986 709.706 3.01196 709.636 1.32861H723.453Z" fill="black"/>
<path d="M730.151 10.2888C730.151 11.3409 730.975 11.7442 733.904 11.7442C736.832 11.7442 737.516 11.3585 737.516 10.7097C737.516 10.0258 737.095 9.55238 733.272 9.27182C727.749 8.83345 726.241 7.51832 726.241 5.08098C726.241 2.64364 728.38 1.01294 733.623 1.01294C739.252 1.01294 741.146 2.24035 741.146 4.81796C741.146 5.06345 741.128 5.30894 741.111 5.5895C740.69 5.55443 739.971 5.5369 739.234 5.5369C738.498 5.5369 737.761 5.55443 737.323 5.5895V5.23884C737.323 4.4147 736.779 3.99383 733.536 3.99383C730.748 3.99383 730.186 4.34454 730.186 4.94072C730.186 5.50184 730.52 5.94019 734.605 6.29088C739.673 6.76432 741.409 7.90413 741.409 10.5519C741.409 13.1996 739.392 14.7953 733.939 14.7953C728.205 14.7953 726.136 13.4626 726.136 10.9727C726.136 10.6921 726.136 10.3765 726.188 10.0784C726.662 10.131 727.416 10.1836 728.135 10.1836C728.889 10.1836 729.59 10.1661 730.151 10.131V10.2888Z" fill="black"/>
<path d="M748.16 12.9893C748.16 14.0764 747.424 14.6375 746.039 14.6375C744.654 14.6375 743.935 14.0764 743.935 12.9893C743.935 11.9021 744.706 11.3585 746.039 11.3585C747.371 11.3585 748.16 11.8846 748.16 12.9893ZM744.338 7.85157C744.338 5.87013 744.092 2.39824 743.97 1.32861C744.688 1.36368 745.495 1.36366 746.074 1.36366C746.652 1.36366 747.389 1.36368 748.09 1.32861C748.003 2.41577 747.775 6.01041 747.775 7.85157C747.775 9.06147 747.74 9.76287 747.792 10.2714C747.249 10.2538 746.582 10.2538 746.074 10.2538C745.6 10.2538 744.934 10.2538 744.32 10.2714C744.355 9.69273 744.338 8.79845 744.338 7.85157Z" fill="black"/>
</svg>
