<svg width="106" height="26" viewBox="0 0 106 26" fill="none" xmlns="http://www.w3.org/2000/svg">
<path d="M48.5311 0.237981C51.4714 0.237981 52.0662 1.73133 52.0662 9.87778C52.0662 18.7033 51.5044 20.1287 48.762 20.1287H48.4319C48.465 22.2671 48.5311 24.1682 48.5973 25.6956H45.8549C45.921 22.0298 45.8879 18.3974 45.8879 12.9664C45.8879 7.53546 45.921 3.80176 45.8549 0.237305H48.5311V0.237981ZM48.3657 4.4808C48.3657 8.41842 48.3657 12.3221 48.3988 15.8519H48.6304C49.3906 15.8519 49.4891 15.1388 49.4891 10.3869C49.4891 5.05788 49.2245 4.4808 48.6634 4.4808H48.3664H48.3657Z" fill="black"/>
<path d="M57.0554 15.7498C58.2781 16.055 58.7405 16.938 58.9384 19.8907C59.0707 21.7572 59.203 24.3374 59.3016 25.6948H56.89C56.6584 25.6948 56.5929 25.5249 56.5929 25.1517C56.4275 17.5144 56.2628 16.9713 55.6018 16.9713H55.2386C55.2717 20.4678 55.3378 23.4885 55.404 25.6948H52.7277C52.7608 22.0291 52.7608 18.3967 52.7608 12.9657C52.7608 7.53473 52.7608 3.90299 52.7277 0.236572H55.5694C58.2126 0.236572 59.0383 1.18682 59.0383 7.77196C59.0383 13.4408 58.5758 15.2394 57.056 15.6132V15.7492L57.0554 15.7498ZM55.2055 4.65C55.2055 7.5694 55.2055 10.4201 55.2386 13.1356H55.4701C56.2634 13.1356 56.4943 12.3206 56.4943 8.85883C56.4943 5.09114 56.2297 4.65 55.6025 4.65H55.2062H55.2055Z" fill="black"/>
<path d="M64.7202 0.237981C64.6872 0.984994 64.6872 2.10518 64.6872 3.08941C64.6872 4.20959 64.6872 5.43173 64.7202 6.21205C63.9276 6.17806 62.9689 6.14408 62.3086 6.14408L62.2756 9.97974C63.0682 9.97974 63.9938 9.94576 64.5886 9.87778V15.2408C63.9938 15.1728 63.0688 15.2068 62.2756 15.2068V19.1444C62.9365 19.1444 63.8615 19.1104 64.7202 19.1104C64.7202 19.9254 64.6872 21.1469 64.6872 22.301C64.6872 23.4552 64.7202 24.7786 64.7202 25.6956H59.7971C59.7971 22.1991 59.8302 18.3974 59.8302 12.9664C59.8302 7.53546 59.7971 3.63183 59.7971 0.237305H64.7202V0.237981Z" fill="black"/>
<path d="M68.0897 0.237981C71.03 0.237981 71.6248 1.73133 71.6248 9.87778C71.6248 18.7033 71.063 20.1287 68.3206 20.1287H67.9905C68.0235 22.2671 68.0897 24.1682 68.1559 25.6956H65.4135C65.4796 22.0298 65.4465 18.3974 65.4465 12.9664C65.4465 7.53546 65.4796 3.80176 65.4135 0.237305H68.0897V0.237981ZM67.9243 4.4808C67.9243 8.41842 67.9243 12.3221 67.9574 15.8519H68.189C68.9492 15.8519 69.0477 15.1388 69.0477 10.3869C69.0477 5.05788 68.7831 4.4808 68.222 4.4808H67.925H67.9243Z" fill="black"/>
<path d="M75.5568 25.6955C75.5568 24.8132 75.5568 22.8441 75.5238 20.3665H74.2025C74.1694 22.7088 74.1033 24.6433 74.1033 25.6955H71.6586C72.0549 19.2803 72.7489 3.15732 72.782 0.237915H77.1434C77.2096 3.25859 77.9036 19.2123 78.333 25.6955H75.5575H75.5568ZM75.4245 15.5126C75.3253 12.6272 75.226 9.60651 75.1275 7.02697L75.0282 3.15732H74.8628C74.7966 4.41344 74.7305 6.07672 74.6974 7.02697C74.5651 9.64049 74.4658 12.6619 74.3673 15.5126H75.4245Z" fill="black"/>
<path d="M82.9579 15.7498C84.1806 16.055 84.6431 16.938 84.8409 19.8907C84.9732 21.7572 85.1055 24.3374 85.2041 25.6948H82.7925C82.5609 25.6948 82.4954 25.5249 82.4954 25.1517C82.33 17.5144 82.1653 16.9713 81.5043 16.9713H81.1411C81.1742 20.4678 81.2403 23.4885 81.3065 25.6948H78.6302C78.6633 22.0291 78.6633 18.3967 78.6633 12.9657C78.6633 7.53473 78.6633 3.90299 78.6302 0.236572H81.4719C84.1151 0.236572 84.9408 1.18682 84.9408 7.77196C84.9408 13.4408 84.4783 15.2394 82.9586 15.6132V15.7492L82.9579 15.7498ZM81.108 4.65C81.108 7.5694 81.108 10.4201 81.1411 13.1356H81.3727C82.1653 13.1356 82.3969 12.3206 82.3969 8.85883C82.3969 5.09114 82.1322 4.65 81.505 4.65H81.1087H81.108Z" fill="black"/>
<path d="M89.2023 25.6955C89.2023 24.8132 89.2023 22.8441 89.1692 20.3665H87.8479C87.8149 22.7088 87.7487 24.6433 87.7487 25.6955H85.304C85.7003 19.2803 86.3944 3.15732 86.4274 0.237915H90.7889C90.855 3.25859 91.5491 19.2123 91.9785 25.6955H89.2029H89.2023ZM89.07 15.5126C88.9707 12.6272 88.8715 9.60651 88.7729 7.02697L88.6737 3.15732H88.5082C88.4421 4.41344 88.3759 6.07672 88.3428 7.02697C88.2105 9.64049 88.1113 12.6619 88.0127 15.5126H89.07Z" fill="black"/>
<path d="M95.3154 0.237981C97.6615 0.237981 98.7512 1.69734 98.7512 12.0842C98.7512 23.7271 97.7931 25.6956 95.2492 25.6956H92.309C92.342 22.1318 92.342 18.3974 92.342 13.0004C92.342 7.60344 92.342 3.63183 92.309 0.237305H95.3154V0.237981ZM95.183 20.7057C95.844 20.7057 96.0749 20.1287 96.0749 12.7292C96.0749 5.32977 95.7778 4.68472 95.2161 4.68472H94.9515C94.9515 6.92508 94.9184 10.0817 94.9184 13.0684C94.9184 16.5649 94.9184 18.9405 94.9515 20.7057H95.183Z" fill="black"/>
<path d="M102.452 25.9327C99.974 25.9327 99.3461 23.2512 99.3461 12.3553C99.3461 1.45936 100.238 0 102.452 0C104.666 0 105.524 1.9005 105.524 12.3553C105.524 22.8101 104.896 25.9327 102.452 25.9327ZM103.047 12.2873C103.047 5.05712 102.914 4.48004 102.452 4.48004C101.989 4.48004 101.89 5.05712 101.89 12.2873C101.89 20.0946 101.989 20.8409 102.452 20.8409C102.947 20.8409 103.047 20.0939 103.047 12.2873Z" fill="black"/>
<path d="M4.05885 9.80837C4.09193 8.55225 4.09193 7.46605 4.09193 6.44783C4.09193 4.88651 3.92652 4.41139 3.59637 4.41139C3.23314 4.41139 3.10082 4.88651 3.10082 6.21061C3.10082 8.45097 3.36481 9.63912 4.22425 11.3364C5.38077 13.5088 6.30571 15.5112 6.30571 19.856C6.30571 24.2008 5.38077 26 3.39855 26C1.1186 26 0.523804 23.9975 0.523804 20.2298C0.523804 18.8045 0.556885 17.5823 0.623047 16.2243C0.887034 16.2582 1.18476 16.2582 1.61416 16.2582C2.04355 16.2582 2.50602 16.2582 2.73759 16.2243C2.70451 17.3104 2.70451 18.2947 2.70451 19.0417C2.70451 20.9089 2.80375 21.486 3.16698 21.486C3.56329 21.486 3.66254 20.9429 3.66254 19.5175C3.66254 17.0399 3.29931 16.021 2.40678 14.5277C1.1841 12.5252 0.523804 10.3188 0.523804 5.87211C0.523804 1.42538 1.44875 0 3.53021 0C5.61167 0 6.27263 1.49335 6.27263 5.90609C6.27263 7.06026 6.27263 8.35037 6.20647 9.80973H4.05885V9.80837Z" fill="black"/>
<path d="M11.8551 0.270577C11.822 1.01759 11.822 2.13777 11.822 3.12201C11.822 4.24219 11.822 5.46432 11.8551 6.24464C11.0624 6.21066 10.1038 6.17667 9.44346 6.17667L9.41038 10.0123C10.203 10.0123 11.1286 9.97835 11.7234 9.91038V15.2734C11.1286 15.2054 10.2037 15.2394 9.41038 15.2394V19.177C10.0713 19.177 10.9963 19.143 11.8551 19.143C11.8551 19.958 11.822 21.1795 11.822 22.3336C11.822 23.4878 11.8551 24.8112 11.8551 25.7282H6.93195C6.93195 22.2317 6.96503 18.43 6.96503 12.999C6.96503 7.56806 6.93195 3.66442 6.93195 0.269897H11.8551V0.270577Z" fill="black"/>
<path d="M18.8929 0.270508V20.3651C18.8929 24.3707 18.232 26 15.7542 26C13.2764 26 12.5824 24.3707 12.5824 20.3651C12.5824 16.3595 12.6155 12.0827 12.6155 9.33323C12.6155 5.49756 12.5824 2.88403 12.5824 0.270508H15.2917C15.2917 5.6335 15.2587 14.2211 15.2587 19.3469C15.2587 20.2291 15.4241 20.535 15.8204 20.535C16.1836 20.535 16.349 20.2298 16.349 19.3469C16.349 14.2551 16.3159 5.59952 16.2828 0.270508H18.8929Z" fill="black"/>
<path d="M25.2698 9.80837C25.3029 8.55225 25.3029 7.46605 25.3029 6.44783C25.3029 4.88651 25.1375 4.41139 24.8073 4.41139C24.4441 4.41139 24.3118 4.88651 24.3118 6.21061C24.3118 8.45097 24.5757 9.63912 25.4352 11.3364C26.5917 13.5088 27.5167 15.5112 27.5167 19.856C27.5167 24.2008 26.5917 26 24.6095 26C22.3295 26 21.7347 23.9975 21.7347 20.2298C21.7347 18.8045 21.7678 17.5823 21.834 16.2243C22.098 16.2582 22.3957 16.2582 22.8251 16.2582C23.2545 16.2582 23.717 16.2582 23.9485 16.2243C23.9154 17.3104 23.9154 18.2947 23.9154 19.0417C23.9154 20.9089 24.0147 21.486 24.3779 21.486C24.7742 21.486 24.8735 20.9429 24.8735 19.5175C24.8735 17.0399 24.5102 16.021 23.6177 14.5277C22.395 12.5252 21.7347 10.3188 21.7347 5.87211C21.7347 1.42538 22.6597 0 24.7411 0C26.8226 0 27.4836 1.49335 27.4836 5.90609C27.4836 7.06026 27.4836 8.35037 27.4174 9.80973H25.2698V9.80837Z" fill="black"/>
<path d="M28.1437 25.7282C28.1768 22.2996 28.1768 18.43 28.1768 12.999C28.1768 7.56806 28.1768 3.69841 28.1437 0.269897H30.9523C30.8861 3.69841 30.8861 7.56806 30.8861 12.999C30.8861 18.43 30.8861 22.2996 30.9523 25.7282H28.1437Z" fill="black"/>
<path d="M36.4034 0.270508V5.6335H35.3792C35.3792 13.1349 35.4123 23.8949 35.4123 25.7281C35.0491 25.6941 34.4212 25.6941 33.9918 25.6941C33.5293 25.6941 32.9345 25.6941 32.5051 25.7281C32.5713 23.8949 32.6044 13.1349 32.6044 5.6335H31.514C31.5471 4.88649 31.5471 3.8003 31.5471 2.91802C31.5471 1.96777 31.5471 0.949549 31.514 0.270508H36.4041H36.4034Z" fill="black"/>
<path d="M41.8875 0.270577C41.8544 1.01759 41.8544 2.13777 41.8544 3.12201C41.8544 4.24219 41.8544 5.46432 41.8875 6.24464C41.0949 6.21066 40.1362 6.17667 39.4759 6.17667L39.4428 10.0123C40.2354 10.0123 41.161 9.97835 41.7558 9.91038V15.2734C41.161 15.2054 40.2361 15.2394 39.4428 15.2394V19.177C40.1038 19.177 41.0287 19.143 41.8875 19.143C41.8875 19.958 41.8544 21.1795 41.8544 22.3336C41.8544 23.4878 41.8875 24.8112 41.8875 25.7282H36.9644C36.9644 22.2317 36.9974 18.43 36.9974 12.999C36.9974 7.56806 36.9644 3.66442 36.9644 0.269897H41.8875V0.270577Z" fill="black"/>
</svg>
