<svg width="53" height="24" viewBox="0 0 53 24" fill="none" xmlns="http://www.w3.org/2000/svg">
<path fill-rule="evenodd" clip-rule="evenodd" d="M12 0.585437C5.69591 0.585437 0.585437 5.69591 0.585437 12C0.585437 18.3041 5.69591 23.4146 12 23.4146C18.3041 23.4146 23.4146 18.3041 23.4146 12C23.4146 5.69591 18.3041 0.585437 12 0.585437ZM0 12C0 5.37258 5.37258 0 12 0C18.6274 0 24 5.37258 24 12C24 18.6274 18.6274 24 12 24C5.37258 24 0 18.6274 0 12Z" fill="#F67922"/>
<path fill-rule="evenodd" clip-rule="evenodd" d="M8.04039 3.85465C6.98534 5.92414 6.32418 8.80351 6.32418 12C6.32418 15.1965 6.98534 18.0759 8.04039 20.1453C9.10356 22.2308 10.5195 23.4146 12 23.4146C13.4805 23.4146 14.8964 22.2308 15.9596 20.1453C17.0147 18.0759 17.6758 15.1965 17.6758 12C17.6758 8.80351 17.0147 5.92414 15.9596 3.85465C14.8964 1.76924 13.4805 0.585437 12 0.585437C10.5195 0.585437 9.10356 1.76924 8.04039 3.85465ZM7.51882 3.58875C8.61583 1.43696 10.1842 0 12 0C13.8158 0 15.3842 1.43696 16.4812 3.58875C17.5863 5.75647 18.2612 8.73074 18.2612 12C18.2612 15.2693 17.5863 18.2435 16.4812 20.4112C15.3842 22.563 13.8158 24 12 24C10.1842 24 8.61583 22.563 7.51882 20.4112C6.41369 18.2435 5.73874 15.2693 5.73874 12C5.73874 8.73074 6.41369 5.75647 7.51882 3.58875Z" fill="#F67922"/>
<path fill-rule="evenodd" clip-rule="evenodd" d="M0.293195 11.7073H23.7073V12.2927H0.293195V11.7073Z" fill="#F67922"/>
<path fill-rule="evenodd" clip-rule="evenodd" d="M22.2032 6.52519H1.79728V5.93975H22.2032V6.52519Z" fill="#F67922"/>
<path fill-rule="evenodd" clip-rule="evenodd" d="M22.2032 18.0602H1.79728V17.4748H22.2032V18.0602Z" fill="#F67922"/>
<path fill-rule="evenodd" clip-rule="evenodd" d="M11.7073 23.6687V0.331259H12.2927V23.6687H11.7073Z" fill="#F67922"/>
<circle cx="40.3636" cy="12" r="12" fill="#F67922"/>
</svg>
